  <svg version="1.2" baseProfile="tiny" id="Layer_1" xmlns="http://www.w3.org/2000/svg" xmlns:xlink="http://www.w3.org/1999/xlink" 
  x="0px" y="0px" width="253px" height="36.836px" viewBox="0 0 253 36.836" xml:space="preserve">
    <g>
    	<path d="M54.984,28.095l-0.12,1.806c0,0.94,0.146,1.691,0.438,2.252c0.292,0.562,0.828,0.843,1.607,0.843
    		c0.447,0,0.877-0.152,1.29-0.456s0.745-0.736,0.997-1.298c0.848-1.742,1.685-4.327,2.51-7.754l2.046-10.557
    		c0.149-0.447,0.888-0.67,2.218-0.67h1.616c-0.149,0.849-0.344,2.164-0.584,3.946c-0.241,1.783-0.45,3.218-0.628,4.307
    		s-0.504,2.441-0.98,4.058s-1.063,3.146-1.762,4.591c0.333,1.009,0.98,1.848,1.943,2.519s1.957,1.006,2.983,1.006
    		s2.035-0.289,3.026-0.868c0.992-0.579,1.88-1.373,2.665-2.381c0.785-1.008,1.418-2.27,1.9-3.783
    		c0.481-1.513,0.722-3.006,0.722-4.479s-0.118-2.743-0.353-3.809s-0.613-2.069-1.135-3.009s-1.167-1.748-1.934-2.424
    		c-1.65-1.456-3.863-2.184-6.637-2.184c-1.662,0-3.315,0.333-4.96,0.998c-1.645,0.665-2.98,1.507-4.006,2.527
    		s-1.539,2.018-1.539,2.992c0,1.341,0.939,2.373,2.82,3.095c0,0.527-0.052,1.081-0.155,1.659c-0.103,0.579-0.2,0.954-0.292,1.126
    		c-1.708-0.539-2.992-1.31-3.852-2.313c-0.859-1.003-1.29-2.023-1.29-3.061c0-1.037,0.189-1.971,0.567-2.802
    		c0.378-0.831,0.983-1.633,1.814-2.407c0.831-0.773,1.837-1.453,3.018-2.037c2.613-1.284,5.989-1.926,10.127-1.926
    		c1.65,0,3.166,0.241,4.548,0.722c1.381,0.481,2.536,1.118,3.464,1.908c0.928,0.791,1.719,1.702,2.373,2.734
    		c1.238,1.972,1.857,4.061,1.857,6.267s-0.324,4.247-0.971,6.121c-0.648,1.874-1.525,3.493-2.631,4.857
    		c-1.106,1.364-2.441,2.45-4.006,3.258c-1.565,0.808-3.23,1.212-4.995,1.212c-2.613,0-4.711-1.089-6.292-3.267
    		c-0.894,1.284-1.857,2.144-2.889,2.579s-2.207,0.653-3.524,0.653c-1.318,0-2.404-0.433-3.258-1.298
    		c-0.854-0.865-1.281-1.803-1.281-2.812C51.459,28.909,52.634,28.095,54.984,28.095z"/>
    	<path d="M90.506,21.166l2.063-0.241c0.333,0,0.499,0.081,0.499,0.241c0,0.161-0.396,1.061-1.187,2.699
    		c-1.811,3.714-2.716,5.949-2.716,6.706c0,0.012-0.003,0.055-0.009,0.129c-0.006,0.075-0.006,0.132,0,0.172
    		c0.006,0.041,0.014,0.095,0.026,0.164c0.011,0.068,0.028,0.12,0.052,0.155c0.08,0.103,0.194,0.155,0.344,0.155
    		c0.298,0,1.212-0.679,2.742-2.038s2.576-2.416,3.138-3.172v1.926c-4.092,4.092-6.849,6.138-8.27,6.138
    		c-0.505,0-0.883-0.227-1.135-0.679s-0.378-0.897-0.378-1.333s0.086-0.937,0.258-1.504s0.404-1.218,0.696-1.952
    		c0.292-0.733,0.564-1.398,0.817-1.994c0.252-0.596,0.53-1.241,0.833-1.935c0.304-0.693,0.479-1.097,0.524-1.212
    		c-0.653,0.665-1.413,1.393-2.278,2.184c-0.866,0.791-1.676,1.576-2.433,2.355v-1.926l3.49-3.628
    		c-1.398-0.344-2.304-0.882-2.716-1.616c-0.092-0.148-0.138-0.28-0.138-0.395c0-0.802,0.304-1.507,0.911-2.115
    		c0.607-0.607,1.416-0.911,2.424-0.911c0.516,0,0.774,0.304,0.774,0.911c0,0.355-0.103,0.743-0.31,1.161
    		c-0.207,0.418-0.453,0.702-0.739,0.851C88.316,20.931,89.222,21.166,90.506,21.166z"/>
    	<path d="M108.025,26.169v1.891c-1.822,2.006-3.45,3.531-4.883,4.573c-1.433,1.043-2.797,1.565-4.092,1.565
    		c-2.591,0-4.207-0.843-4.849-2.527c-0.241-0.665-0.361-1.467-0.361-2.407c0-1.673,0.35-3.27,1.049-4.789
    		c0.699-1.519,1.705-2.768,3.017-3.748s2.771-1.47,4.376-1.47c2.705,0,4.058,1.009,4.058,3.026c0,1.307-0.527,2.444-1.582,3.413
    		c-1.055,0.969-2.241,1.453-3.559,1.453c-0.527,0-1.078-0.155-1.65-0.464c-0.573-0.31-1.061-0.773-1.461-1.393
    		c-0.493,1.032-0.739,2.041-0.739,3.026c0,2.648,0.963,3.972,2.889,3.972c0.504,0,1.126-0.241,1.865-0.722s1.393-0.988,1.96-1.521
    		s1.287-1.238,2.158-2.115S107.693,26.467,108.025,26.169z M98.586,23.986c0.871,1.124,1.833,1.685,2.888,1.685
    		c0.665,0,1.241-0.327,1.728-0.98s0.731-1.341,0.731-2.063s-0.135-1.206-0.404-1.453c-0.269-0.247-0.659-0.37-1.169-0.37
    		c-0.51,0-0.986,0.115-1.427,0.344c-0.442,0.229-0.817,0.516-1.126,0.859C99.211,22.685,98.804,23.344,98.586,23.986z"/>
    	<path d="M108.387,34.199c-1.375,0-2.224-0.969-2.545-2.906c-0.068-0.47-0.103-0.957-0.103-1.461
    		c0-1.25,0.31-2.51,0.929-3.783c0.619-1.272,1.436-2.407,2.45-3.404c1.015-0.997,2.229-1.811,3.645-2.441s2.863-0.946,4.341-0.946
    		c0.722,0,1.685,0.189,2.889,0.567c-0.012,0.081-0.126,0.605-0.344,1.573c-0.218,0.969-0.436,1.958-0.653,2.966
    		c-0.596,2.763-0.894,4.477-0.894,5.141c0,0.665,0.172,0.997,0.516,0.997c0.756,0,2.51-1.456,5.261-4.367v1.926
    		c-1.743,1.8-3.402,3.272-4.978,4.418c-1.576,1.146-2.628,1.72-3.155,1.72c-0.871,0-1.307-0.751-1.307-2.252
    		c0-0.493,0.046-1.049,0.138-1.668c-0.825,1.078-1.785,2-2.88,2.768C110.602,33.814,109.499,34.199,108.387,34.199z M109.401,28.869
    		c0,1.719,0.562,2.579,1.685,2.579c0.481,0,1.075-0.252,1.78-0.756c0.705-0.504,1.344-1.061,1.917-1.668l1.977-8.459
    		c-1.238,0-2.436,0.441-3.593,1.324c-1.158,0.883-2.075,1.966-2.751,3.25S109.401,27.665,109.401,28.869z"/>
    	<path d="M139.334,34.233c-0.676,0-1.014-0.504-1.014-1.513c0-1.341,0.398-2.892,1.195-4.651
    		c0.796-1.76,1.195-3.218,1.195-4.376c0-0.31-0.109-0.596-0.326-0.859c-0.218-0.264-0.548-0.396-0.989-0.396
    		c-0.441,0-0.966,0.321-1.573,0.963c-0.608,0.642-1.152,1.407-1.633,2.295c-0.481,0.889-0.958,1.895-1.427,3.018
    		c-0.722,1.777-1.301,3.438-1.736,4.986h-3.301c0-1.501,0.47-3.783,1.41-6.843c0.562-1.822,0.843-2.937,0.843-3.344
    		c0-0.406-0.081-0.699-0.241-0.876c-0.161-0.178-0.321-0.267-0.481-0.267c-0.161,0-0.31,0.023-0.447,0.069
    		c-0.745,0.344-1.481,1.017-2.209,2.02c-0.729,1.003-1.356,2.124-1.883,3.361c-0.986,2.292-1.685,4.253-2.098,5.88h-3.284
    		c0.092-1.479,0.49-3.792,1.195-6.938c0.705-3.146,1.344-5.178,1.917-6.095c0.206-0.367,0.553-0.599,1.04-0.696
    		s1.321-0.146,2.502-0.146c-0.161,0.803-0.49,1.966-0.989,3.49c-0.499,1.525-0.799,2.465-0.903,2.82
    		c2.602-4.562,5.198-6.843,7.789-6.843c0.447,0,0.779,0.249,0.998,0.748c0.217,0.499,0.326,1.141,0.326,1.925
    		c0,0.786-0.304,2.175-0.911,4.169c0.814-1.593,1.909-3.1,3.284-4.522c0.688-0.699,1.433-1.266,2.235-1.702s1.57-0.654,2.304-0.654
    		c1.284,0,1.926,0.883,1.926,2.648c0,1.628-0.447,3.76-1.341,6.396c-0.252,0.734-0.378,1.218-0.378,1.453
    		c0,0.235,0.055,0.353,0.164,0.353s0.226-0.031,0.353-0.094c0.126-0.063,0.278-0.167,0.456-0.31
    		c0.178-0.144,0.353-0.292,0.524-0.447s0.396-0.367,0.67-0.636c0.275-0.269,0.521-0.51,0.739-0.722s0.504-0.496,0.86-0.852
    		l0.911-0.911v1.926c-1.433,1.479-2.929,2.877-4.487,4.195C140.957,33.574,139.896,34.233,139.334,34.233z"/>
    	<path d="M179.378,15.699v0.327v0.103c1.123-0.161,2.453-0.688,3.989-1.582c0.584-0.332,1.135-0.71,1.65-1.135v1.978
    		c-1.983,1.364-3.875,2.207-5.674,2.527c-0.172,2.694-1.141,5.571-2.906,8.631c-1.926,3.301-4.058,5.634-6.396,6.998
    		c-1.307,0.756-2.596,1.135-3.869,1.135c-1.559,0-2.836-0.614-3.834-1.84c-0.378-0.47-0.668-0.974-0.868-1.513
    		c-0.201-0.539-0.335-0.98-0.404-1.324c-0.849,1.158-2.012,2.221-3.491,3.189c-1.479,0.968-2.728,1.453-3.748,1.453
    		s-1.9-0.252-2.639-0.756s-1.321-1.158-1.745-1.96c-0.825-1.593-1.238-3.396-1.238-5.407c0-2.012,0.353-4.201,1.057-6.568
    		c0.705-2.367,1.671-4.381,2.897-6.043c0.263-0.378,0.57-0.886,0.92-1.522c0.349-0.636,0.524-1.011,0.524-1.126
    		s-0.014-0.172-0.043-0.172c-0.028,0-0.1,0.034-0.215,0.103l-1.96,1.513c-0.183,0.103-0.688,0.413-1.513,0.928
    		c-2.201,1.375-4.27,2.642-6.207,3.8v-1.909c1.284-0.733,3.123-1.839,5.519-3.318c5.169-3.209,8-4.814,8.494-4.814
    		c0.309,0,0.464,0.121,0.464,0.361c0,0.447-0.584,2.063-1.753,4.848c-2.212,5.296-3.318,9.159-3.318,11.588
    		c0,4.253,1.267,6.379,3.8,6.379c0.596,0,1.321-0.255,2.175-0.765c0.854-0.51,1.47-1.08,1.848-1.711
    		c-0.092-0.458-0.137-1.171-0.137-2.14s0.051-1.98,0.155-3.035c0.103-1.055,0.284-2.152,0.542-3.293
    		c0.258-1.14,0.576-2.155,0.954-3.043c0.378-0.888,0.874-1.622,1.487-2.201c0.613-0.579,1.292-0.868,2.037-0.868
    		c0.94,0,1.41,0.659,1.41,1.977c0,1.674-0.705,4.453-2.115,8.339c-0.31,0.871-0.573,1.582-0.791,2.132l-0.344,0.843
    		c0,0.665,0.2,1.244,0.602,1.736c0.779,0.952,1.943,1.427,3.49,1.427c1.135,0,2.27-0.43,3.404-1.29
    		c1.135-0.86,2.098-1.914,2.889-3.164s1.436-2.571,1.934-3.963s0.748-2.627,0.748-3.705c-0.665-0.103-1.318-0.372-1.96-0.808
    		c-0.643-0.436-1.146-0.854-1.513-1.255c-0.883-0.963-1.324-2.126-1.324-3.49c0-1.089,0.275-2.115,0.825-3.078
    		c0.619-1.078,1.576-1.616,2.871-1.616C178.272,7.601,179.378,10.3,179.378,15.699z M177.332,16.025l0.034-0.671
    		c0-1.639-0.292-2.951-0.876-3.937c-0.298-0.493-0.636-0.739-1.015-0.739c-0.642,0-0.963,0.479-0.963,1.436s0.275,1.805,0.825,2.544
    		C175.888,15.397,176.553,15.854,177.332,16.025z"/>
    	<path d="M182.92,30.278c0,0.757,0.2,1.135,0.602,1.135c0.252,0,1.046-0.656,2.381-1.968s2.398-2.404,3.189-3.275
    		v1.925c-2.258,2.224-3.771,3.657-4.539,4.298c-1.398,1.158-2.596,1.76-3.593,1.806c-0.505,0-0.883-0.227-1.135-0.679
    		c-0.252-0.453-0.378-1.034-0.378-1.745s0.321-2.378,0.963-5.003c0.642-2.625,1.069-4.212,1.281-4.763
    		c0.212-0.55,0.387-0.934,0.524-1.152c0.138-0.218,0.31-0.39,0.516-0.516c0.206-0.126,0.387-0.226,0.542-0.301
    		s0.393-0.129,0.713-0.164c0.447-0.034,0.997-0.052,1.65-0.052C183.825,25.625,182.92,29.109,182.92,30.278z M185.877,15.251
    		c-0.814,0-1.221-0.413-1.221-1.238c0-0.573,0.215-1.126,0.645-1.659c0.43-0.533,0.937-0.8,1.521-0.8s1.02,0.115,1.307,0.344
    		c0.287,0.229,0.43,0.576,0.43,1.04s-0.272,0.966-0.817,1.504C187.198,14.982,186.576,15.251,185.877,15.251z"/>
    	<path d="M203.483,26.204v1.926c-1.823,1.857-3.437,3.333-4.84,4.427s-2.341,1.642-2.811,1.642
    		c-0.86,0-1.29-0.481-1.29-1.444s0.215-2.112,0.645-3.447c0.43-1.335,0.859-2.544,1.29-3.628c0.43-1.083,0.645-1.808,0.645-2.175
    		s-0.066-0.636-0.198-0.808s-0.29-0.258-0.473-0.258c-0.653,0-1.358,0.456-2.115,1.367c-0.757,0.911-1.433,2.015-2.029,3.31
    		c-1.238,2.682-2.052,4.877-2.441,6.585h-3.284c0.012-1.238,0.361-3.29,1.049-6.155c0.688-2.866,1.301-4.98,1.84-6.345
    		c0.217-0.55,0.53-0.917,0.937-1.1c0.407-0.183,0.954-0.275,1.642-0.275h1.152c-0.837,2.889-1.456,4.969-1.857,6.241
    		c0.768-1.433,1.88-2.888,3.335-4.367c0.71-0.711,1.484-1.295,2.321-1.754c0.837-0.458,1.628-0.688,2.373-0.688
    		c1.123,0,1.685,0.671,1.685,2.012c0,0.642-0.404,2.164-1.212,4.565s-1.212,3.725-1.212,3.972s0.071,0.37,0.215,0.37
    		c0.143,0,0.332-0.077,0.567-0.232c0.235-0.155,0.914-0.768,2.037-1.84C202.578,27.032,203.254,26.399,203.483,26.204z"/>
    	<path d="M217.891,26.204v1.926c-1.823,1.857-3.436,3.333-4.84,4.427c-1.404,1.095-2.341,1.642-2.811,1.642
    		c-0.86,0-1.29-0.481-1.29-1.444s0.215-2.112,0.645-3.447c0.43-1.335,0.859-2.544,1.289-3.628c0.43-1.083,0.645-1.808,0.645-2.175
    		s-0.066-0.636-0.198-0.808c-0.132-0.172-0.29-0.258-0.473-0.258c-0.653,0-1.358,0.456-2.115,1.367
    		c-0.756,0.911-1.433,2.015-2.029,3.31c-1.238,2.682-2.052,4.877-2.441,6.585h-3.284c0.011-1.238,0.361-3.29,1.049-6.155
    		c0.688-2.866,1.301-4.98,1.84-6.345c0.217-0.55,0.53-0.917,0.937-1.1c0.407-0.183,0.954-0.275,1.642-0.275h1.152
    		c-0.837,2.889-1.456,4.969-1.856,6.241c0.768-1.433,1.879-2.888,3.335-4.367c0.711-0.711,1.484-1.295,2.321-1.754
    		c0.836-0.458,1.627-0.688,2.373-0.688c1.123,0,1.685,0.671,1.685,2.012c0,0.642-0.404,2.164-1.212,4.565s-1.212,3.725-1.212,3.972
    		s0.071,0.37,0.215,0.37c0.143,0,0.332-0.077,0.567-0.232c0.234-0.155,0.914-0.768,2.037-1.84S217.662,26.399,217.891,26.204z"/>
    	<path d="M230.477,26.169v1.891c-1.822,2.006-3.45,3.531-4.883,4.573c-1.433,1.043-2.797,1.565-4.092,1.565
    		c-2.591,0-4.207-0.843-4.849-2.527c-0.241-0.665-0.361-1.467-0.361-2.407c0-1.673,0.35-3.27,1.049-4.789
    		c0.699-1.519,1.705-2.768,3.018-3.748s2.771-1.47,4.376-1.47c2.705,0,4.058,1.009,4.058,3.026c0,1.307-0.527,2.444-1.582,3.413
    		c-1.055,0.969-2.241,1.453-3.559,1.453c-0.527,0-1.078-0.155-1.65-0.464c-0.573-0.31-1.061-0.773-1.461-1.393
    		c-0.493,1.032-0.739,2.041-0.739,3.026c0,2.648,0.963,3.972,2.889,3.972c0.504,0,1.126-0.241,1.865-0.722s1.393-0.988,1.96-1.521
    		s1.287-1.238,2.158-2.115S230.144,26.467,230.477,26.169z M221.038,23.986c0.871,1.124,1.833,1.685,2.889,1.685
    		c0.665,0,1.24-0.327,1.728-0.98s0.731-1.341,0.731-2.063s-0.135-1.206-0.404-1.453s-0.659-0.37-1.169-0.37
    		c-0.51,0-0.986,0.115-1.427,0.344c-0.442,0.229-0.817,0.516-1.126,0.859C221.662,22.685,221.255,23.344,221.038,23.986z"/>
    	<path d="M236.855,21.166l2.063-0.241c0.332,0,0.498,0.081,0.498,0.241c0,0.161-0.395,1.061-1.186,2.699
    		c-1.811,3.714-2.716,5.949-2.716,6.706c0,0.012-0.003,0.055-0.009,0.129c-0.006,0.075-0.006,0.132,0,0.172
    		c0.006,0.041,0.014,0.095,0.025,0.164c0.012,0.068,0.029,0.12,0.052,0.155c0.08,0.103,0.195,0.155,0.344,0.155
    		c0.298,0,1.212-0.679,2.743-2.038s2.576-2.416,3.138-3.172v1.926c-4.092,4.092-6.849,6.138-8.27,6.138
    		c-0.504,0-0.883-0.227-1.135-0.679s-0.378-0.897-0.378-1.333s0.086-0.937,0.258-1.504s0.404-1.218,0.696-1.952
    		c0.292-0.733,0.564-1.398,0.816-1.994s0.53-1.241,0.834-1.935c0.304-0.693,0.479-1.097,0.524-1.212
    		c-0.653,0.665-1.413,1.393-2.278,2.184s-1.676,1.576-2.433,2.355v-1.926l3.49-3.628c-1.398-0.344-2.304-0.882-2.717-1.616
    		c-0.092-0.148-0.137-0.28-0.137-0.395c0-0.802,0.303-1.507,0.911-2.115c0.607-0.607,1.416-0.911,2.424-0.911
    		c0.516,0,0.773,0.304,0.773,0.911c0,0.355-0.103,0.743-0.31,1.161c-0.206,0.418-0.453,0.702-0.739,0.851
    		C234.666,20.931,235.571,21.166,236.855,21.166z"/>
    	<path d="M245.572,33.571c-0.39,0.166-0.816,0.313-1.28,0.438c-0.465,0.126-0.929,0.189-1.393,0.189
    		s-0.952-0.046-1.461-0.138c-0.51-0.092-1.012-0.241-1.504-0.447c-1.124-0.458-1.685-1.25-1.685-2.373
    		c0-0.447,0.166-0.957,0.499-1.53c0.333-0.573,0.697-1.077,1.092-1.513c0.396-0.436,0.863-0.934,1.401-1.496
    		c0.539-0.562,0.905-0.963,1.101-1.204c-0.31-0.768-0.464-1.604-0.464-2.51c0-1.341,0.413-2.45,1.238-3.327s2.058-1.315,3.697-1.315
    		c0.722,0,1.083,0.201,1.083,0.602c0,0.71-0.307,1.264-0.92,1.659s-1.27,0.593-1.969,0.593c0.39,1.181,1.049,2.241,1.978,3.181
    		c0.344,0.367,0.676,0.716,0.997,1.049c0.745,0.756,1.118,1.41,1.118,1.96c0,0.848-0.401,1.822-1.204,2.923L253,26.135v1.892
    		c-0.138,0.114-0.479,0.413-1.023,0.894s-0.94,0.828-1.186,1.04c-0.247,0.212-0.648,0.542-1.204,0.989
    		c-0.556,0.447-1.003,0.788-1.341,1.023c-0.338,0.235-0.771,0.519-1.298,0.851C246.421,33.156,245.962,33.405,245.572,33.571z
    		 M243.08,26.84c-0.092,0.103-0.441,0.43-1.049,0.98c-1.353,1.204-2.029,2.129-2.029,2.777s0.332,1.192,0.997,1.633
    		c0.665,0.441,1.381,0.662,2.149,0.662c0.768,0,1.387-0.129,1.856-0.387c0.47-0.258,0.705-0.587,0.705-0.988
    		s-0.052-0.762-0.155-1.083c-0.103-0.321-0.266-0.656-0.49-1.006c-0.224-0.349-0.419-0.636-0.584-0.859
    		c-0.167-0.224-0.416-0.533-0.748-0.929S243.183,26.978,243.08,26.84z"/>
    </g>
    <title>Cloud</title>
    <title>icon 13 cloud wind</title>
    <desc>Created with Sketch.</desc>
    <g>
    	<g>
    		<path d="M11.421,18.55c-0.236-0.614-0.371-1.279-0.371-1.975c0-3.047,2.479-5.526,5.525-5.526
    			c0.697,0,1.362,0.135,1.976,0.372c1.034-0.932,2.193-1.698,3.446-2.279c-1.521-1.113-3.392-1.777-5.422-1.777
    			c-5.084,0-9.208,4.125-9.208,9.209c0,1.883,0.568,3.633,1.538,5.091C9.563,20.497,10.415,19.443,11.421,18.55z"/>
    		<path d="M18.417,2.763c0,1.519-0.829,2.762-1.842,2.762c-1.012,0-1.841-1.243-1.841-2.762
    			C14.734,1.243,15.563,0,16.575,0C17.589,0,18.417,1.243,18.417,2.763z"/>
    		<path d="M2.763,18.417C1.244,18.417,0,17.588,0,16.576c0-1.014,1.244-1.843,2.763-1.843
    			c1.52,0,2.763,0.829,2.763,1.843C5.525,17.588,4.281,18.417,2.763,18.417z"/>
    		<path d="M27.867,7.856c0.882-1.042,1.092-2.339,0.429-3.001c-0.717-0.717-2.181-0.425-3.255,0.651
    			c-0.903,0.902-1.247,2.077-0.909,2.855C25.329,8.032,26.581,7.856,27.867,7.856z"/>
    		<path d="M7.367,27.553c0-1.224,0.185-2.412,0.529-3.537c-0.736-0.071-1.652,0.287-2.39,1.023
    			c-1.075,1.075-1.368,2.539-0.651,3.255c0.567,0.569,1.604,0.493,2.544-0.093C7.388,27.985,7.367,27.771,7.367,27.553z"/>
    		<path d="M8.11,5.506c1.075,1.075,1.367,2.538,0.651,3.255C8.045,9.478,6.58,9.184,5.506,8.11
    			C4.431,7.035,4.138,5.571,4.855,4.855C5.572,4.138,7.037,4.43,8.11,5.506z"/>
    	</g>
    	<path d="M39.058,21.101c-0.001-0.01-3.057-0.525-6.022,1.576c1.209-2.101,2.85-3.51,5.639-3.796
    		c-1.297-4.759-5.631-8.263-10.803-8.263c-4.081,0-7.648,2.186-9.609,5.446c2.514,0.109,5.162,2.008,6.819,4.149
    		c-1.568-1.214-3.531-1.943-5.668-1.943c-0.774,0-1.521,0.106-2.24,0.286c-0.001-0.021-0.008-0.04-0.01-0.061
    		c-0.008,0.023-0.017,0.044-0.024,0.067c-4.025,1.015-7.011,4.649-7.011,8.992c0,5.125,4.157,9.283,9.284,9.283h18.361
    		c4.375,0,7.922-3.547,7.922-7.922C45.697,24.972,42.821,21.714,39.058,21.101z"/>
    </g>
  </svg>